<svg width="136" height="55" viewBox="0 0 136 55" fill="none" xmlns="http://www.w3.org/2000/svg">
<g clip-path="url(#clip0_858_2577)">
<path d="M19.0513 11.2552C19.1686 10.7276 19.3444 10.1414 19.5203 9.4966C19.6962 8.85177 19.7548 8.26556 19.8134 7.62074C19.872 6.97591 19.8134 6.3897 19.6962 5.80349C19.5789 5.21729 19.2858 4.6897 18.8755 4.27936C18.4651 3.86901 17.8789 3.51729 17.1755 3.22418C16.472 2.93108 15.4755 2.81384 14.3031 2.81384C12.8962 2.81384 11.6065 3.34142 10.6099 4.33798C9.6134 5.33453 8.73409 6.62418 8.14788 8.20694C7.56167 9.7897 7.03409 11.6069 6.91684 13.4828C6.7996 15.3587 6.91684 17.1759 7.32719 18.9932C7.73753 20.7518 8.38236 22.3345 9.37891 23.7414C10.3168 25.1483 11.6065 26.1449 13.1893 26.7311C14.5375 27.2587 15.8272 27.4345 17.1168 27.3173C18.3479 27.2 19.5203 26.9069 20.5168 26.438C21.5134 25.969 22.3927 25.3828 23.1548 24.7966C23.8582 24.1518 24.3858 23.6242 24.6789 23.0966C25.3237 23.8587 25.7341 24.6794 25.9099 25.5587C26.0858 26.438 26.0858 27.3173 25.8513 28.138C25.6168 28.9587 25.2651 29.7794 24.7375 30.6C24.2099 31.4207 23.5065 32.0656 22.7444 32.6518C21.9824 33.238 21.1031 33.7069 20.1065 34.0587C19.1099 34.4104 18.1134 34.5863 17.0582 34.5863C16.0031 34.5863 14.772 34.5276 13.4237 34.3518C12.0755 34.1759 10.6686 33.8828 9.26167 33.3552C7.85477 32.8276 6.5065 32.1242 5.27546 31.2449C3.98581 30.3656 2.93064 29.1345 2.10995 27.6104C1.28926 26.0863 0.64443 24.2104 0.292706 22.0414C-0.0590184 19.8725 -0.0590184 17.1173 0.409947 14.069C0.878913 11.0207 1.87546 8.50005 3.34098 6.50694C4.8065 4.51384 6.5065 2.9897 8.4996 1.93453C10.4927 0.879356 12.4858 0.293149 14.5962 0.0586659C16.7065 -0.175817 18.6996 0.0586659 20.4582 0.586252C22.2168 1.11384 23.741 1.93453 24.9134 3.16556C26.0858 4.33798 26.672 5.80349 26.672 7.44487C26.672 8.61729 26.5548 9.55522 26.2031 10.3173C25.9099 11.0207 25.4996 11.6069 25.0893 11.9587C24.6203 12.3104 24.0927 12.5449 23.5065 12.6035C22.9203 12.6621 22.3341 12.6621 21.8065 12.5449C21.2789 12.4276 20.6927 12.2518 20.2237 12.0173C19.7548 11.7242 19.3444 11.4897 19.0513 11.2552Z" fill="#fff"/>
<path d="M37.8102 29.1345C35.8171 29.1345 34.1171 28.7241 32.7688 27.9034C31.4205 27.0828 30.424 26.0276 29.6619 24.7966C28.8998 23.5069 28.4309 22.1586 28.1964 20.5759C27.9619 18.9931 27.9619 17.5276 28.1964 16.0621C28.4309 14.5966 28.7826 13.2483 29.3688 12.0759C29.955 10.8448 30.5998 9.96552 31.4205 9.37931C31.9481 8.73448 32.6515 8.2069 33.5895 7.73793C34.4688 7.26897 35.524 6.97586 36.6964 6.91724C37.8688 6.85862 39.1584 7.03448 40.624 7.44483C42.0895 7.85517 43.6136 8.67586 45.1964 9.84828C46.1343 10.5517 46.8964 11.4897 47.4826 12.7207C48.0688 13.9517 48.4205 15.2414 48.5378 16.7069C48.655 18.1724 48.5964 19.5793 48.2446 21.1034C47.8929 22.6276 47.3067 23.9172 46.4274 25.0897C45.5481 26.2621 44.4343 27.2586 43.0274 28.0207C41.6205 28.7828 39.8619 29.1345 37.8102 29.1345ZM44.8446 14.4207C44.7274 13.9517 44.4343 13.5414 44.024 13.131C43.6136 12.7793 43.086 12.4276 42.4998 12.2517C41.9136 12.0172 41.2102 11.9 40.5067 11.8414C39.8033 11.7828 39.0412 11.8414 38.2791 12.0759C37.6343 12.2517 37.0481 12.7207 36.5791 13.3655C36.1102 14.0103 35.6998 14.831 35.4653 15.7103C35.2309 16.5897 35.1136 17.5862 35.1136 18.5241C35.1136 19.4621 35.2895 20.4 35.6998 21.1621C36.0515 21.9241 36.6377 22.569 37.3412 23.0379C38.1033 23.5069 39.0412 23.6828 40.2722 23.5655C41.386 23.4483 42.2653 23.1552 42.9688 22.7448C43.6722 22.3345 44.1412 21.8069 44.5515 21.2207C44.9033 20.6345 45.1964 19.9897 45.255 19.3448C45.3722 18.7 45.3722 17.9966 45.3722 17.3517C45.3136 16.7069 45.255 16.1207 45.1377 15.5931C45.0205 15.1241 44.9033 14.7138 44.8446 14.4207Z" fill="#fff"/>
<path d="M51.1179 14.0693C50.6489 13.7175 50.3558 13.19 50.18 12.5451C50.0041 11.8417 50.0627 11.1382 50.3558 10.4348C50.6489 9.73133 51.1765 9.14512 51.9386 8.61754C52.7007 8.08995 53.7558 7.85547 55.1041 7.85547C55.9834 7.85547 56.7455 7.97271 57.3903 8.26581C58.0352 8.5003 58.5041 8.91064 58.9145 9.37961C59.3248 9.84857 59.6179 10.3762 59.7938 11.021C59.9696 11.6658 60.1455 12.3693 60.2627 13.0727C60.6731 12.4279 61.0834 11.7244 61.611 11.1382C62.1386 10.4934 62.7248 9.96581 63.4283 9.43823C64.1317 8.96926 64.8351 8.55892 65.6558 8.26581C66.4765 7.97271 67.4145 7.85547 68.411 7.85547C69.642 7.85547 70.58 8.08995 71.1662 8.5003C71.7524 8.96926 72.1627 9.49685 72.3972 10.2003C72.6317 10.8451 72.7489 11.6072 72.6903 12.4279C72.6317 13.2486 72.6317 12.9555 72.6317 13.7175C72.6317 14.4796 72.6317 15.1244 72.7489 15.7106C72.8662 16.2968 73.1593 16.6486 73.6283 16.8244C73.2765 17.352 72.8076 17.821 72.2214 18.1727C71.6351 18.5244 70.9903 18.8175 70.3455 18.9934C69.642 19.1693 68.9972 19.1693 68.3524 19.052C67.6489 18.9348 67.0627 18.5831 66.5938 18.1141C66.1834 17.7037 65.8903 17.1762 65.7731 16.6486C65.6558 16.0624 65.5972 15.4762 65.5972 14.89C65.5972 14.3037 65.6558 13.7175 65.7145 13.1313C65.7731 12.5451 65.7731 12.9555 65.7731 12.5451C65.7731 12.1348 65.8317 11.9589 65.7145 11.6658C65.5972 11.4313 65.3627 11.3727 65.011 11.4313C64.1317 11.6658 63.2524 12.3106 62.4903 13.3658C61.6696 14.421 60.9662 15.5934 60.38 16.9417C60.3214 18.1141 60.2627 19.2279 60.1455 20.2831C60.0283 21.3382 59.7938 22.2762 59.7938 23.2141C59.7938 24.152 59.911 24.9141 60.0869 25.5003C60.2627 26.1451 60.6145 26.5555 61.142 26.6727C60.7903 27.2589 60.3214 27.7865 59.6179 28.1968C58.9145 28.6072 58.211 28.8417 57.3903 28.9003C56.5696 28.9589 55.8076 28.9003 54.9869 28.6072C54.1662 28.3141 53.4627 27.8451 52.8765 27.1417C52.2903 26.4382 51.88 25.5003 51.5869 24.2693C51.2938 23.0382 51.3524 21.6313 51.5869 19.8141C51.88 18.0555 51.9972 16.6486 52.0558 15.652C52.1145 14.6555 52.0558 13.8934 51.9386 13.4244C51.8214 12.9555 51.7041 12.6624 51.5283 12.6037C51.3524 12.5451 51.1765 12.6037 51.0593 12.721C50.942 12.8968 50.8248 13.0727 50.7662 13.3658C50.8248 13.7175 50.8834 13.8934 51.1179 14.0693Z" fill="#fff"/>
<path d="M75.9724 14.0693C75.4448 13.7175 75.1517 13.19 74.9759 12.5451C74.8 11.8417 74.8586 11.1382 75.1517 10.4348C75.4448 9.73133 75.9724 9.14512 76.6759 8.61754C77.4379 8.08995 78.4931 7.85547 79.8414 7.85547C80.9552 7.85547 81.8345 8.08995 82.5379 8.5003C83.2414 8.91064 83.769 9.49685 84.1207 10.2003C84.4724 10.9037 84.7655 11.7244 84.8241 12.6624C84.8828 13.6003 85 14.5382 85 15.5934C85.3517 14.7141 85.7621 13.7762 86.2897 12.8968C86.8173 12.0175 87.4621 11.1382 88.2241 10.4348C88.9862 9.67271 89.8655 9.0865 90.8621 8.61754C91.8586 8.14857 93.031 7.91409 94.3207 7.91409C95.4345 7.91409 96.3138 8.14857 97.0173 8.73478C97.7207 9.32099 98.2483 9.96581 98.5414 10.8451C98.8931 11.7244 99.1276 12.721 99.1862 13.7762C99.2448 14.8313 99.3035 16.0037 99.3035 17.1762C99.3035 18.3486 99.2448 19.4624 99.1862 20.5762C99.1276 21.69 99.069 22.6865 99.1276 23.5658C99.1276 24.4451 99.2448 25.1486 99.4207 25.7348C99.5966 26.321 99.8897 26.6141 100.359 26.6141C99.7724 27.1417 99.1862 27.6106 98.5414 28.021C97.8966 28.4313 97.2517 28.7831 96.5483 28.9589C95.8448 29.1348 95.1414 29.1934 94.4379 29.0175C93.7345 28.8417 93.0897 28.49 92.4448 27.8451C92.0345 27.4348 91.8 26.7313 91.7414 25.6762C91.6828 24.6796 91.6828 23.5072 91.7414 22.2175C91.8 20.9279 91.9173 19.6382 92.0931 18.29C92.269 16.9417 92.3276 15.7106 92.3276 14.6555C92.3276 13.6003 92.269 12.721 92.0345 12.0762C91.8586 11.4313 91.4483 11.2555 90.8621 11.4313C90.1586 11.6658 89.4552 12.1348 88.8104 12.8968C88.1655 13.6589 87.5207 14.5382 86.9931 15.5348C86.4069 16.5313 85.9379 17.5865 85.5276 18.7003C85.1173 19.8141 84.7655 20.8106 84.5897 21.7486C84.531 22.452 84.531 23.0968 84.531 23.6831C84.531 24.2693 84.5897 24.8555 84.6483 25.3244C84.7069 25.7934 84.8828 26.2037 85.0586 26.5555C85.2345 26.8486 85.5276 27.0831 85.8793 27.2003C85.5276 27.7865 85.0586 28.3141 84.3552 28.6658C83.7104 29.0175 82.9483 29.252 82.1276 29.3106C81.3069 29.3693 80.5448 29.252 79.7242 28.9589C78.9035 28.6658 78.2 28.1382 77.6138 27.3762C77.0276 26.6141 76.5586 25.6762 76.3241 24.4451C76.0897 23.2141 76.0897 21.7486 76.3241 19.99C76.6173 18.2313 76.7345 16.8244 76.7931 15.8279C76.8517 14.8313 76.7931 14.0693 76.6759 13.6003C76.5586 13.1313 76.4414 12.8382 76.2655 12.7796C76.0897 12.721 75.9138 12.7796 75.7966 12.8968C75.6793 13.0727 75.5621 13.2486 75.5621 13.5417C75.6793 13.7175 75.7379 13.8934 75.9724 14.0693Z" fill="#fff"/>
<path d="M118.648 11.3721C118.765 10.1997 119.176 9.20318 119.762 8.38249C120.407 7.5618 121.052 7.03422 121.872 6.74111C122.634 6.44801 123.396 6.44801 124.158 6.74111C124.921 7.03422 125.507 7.73766 125.976 8.73422C125.565 9.14456 125.331 9.90663 125.389 11.0204C125.448 12.1342 125.507 13.4825 125.683 15.0653C125.858 16.648 126.093 18.4066 126.327 20.2825C126.562 22.1584 126.738 24.0928 126.796 25.9687C126.855 27.9032 126.796 29.779 126.503 31.5963C126.269 33.4135 125.741 35.0549 124.921 36.5204C124.1 37.9859 122.927 39.1584 121.462 40.0963C119.938 41.0342 118.003 41.5618 115.541 41.7377C112.258 41.9135 109.679 41.7963 107.803 41.3273C105.927 40.8584 104.579 40.2721 103.7 39.4515C102.821 38.6308 102.41 37.7515 102.41 36.8135C102.41 35.817 102.645 34.879 103.114 33.9997C103.583 33.1204 104.227 32.3584 105.048 31.7721C105.869 31.1859 106.631 30.8342 107.393 30.7756C106.924 31.0101 106.689 31.3618 106.631 31.8308C106.572 32.2997 106.865 32.7101 107.452 33.1204C108.038 33.5308 108.976 33.8825 110.324 34.1756C111.672 34.4687 113.431 34.5859 115.658 34.5859C117.124 34.5859 118.296 34.2928 119.058 33.7653C119.821 33.2377 120.407 32.5928 120.758 31.7135C121.11 30.8342 121.227 29.8377 121.169 28.7239C121.11 27.6101 120.934 26.379 120.7 25.0894C120.465 23.7997 120.114 22.5101 119.762 21.2204C119.41 19.9308 119.117 18.6411 118.824 17.3515C118.707 17.9377 118.531 18.5825 118.296 19.4032C118.062 20.2239 117.769 21.0446 117.417 21.9239C117.065 22.8032 116.596 23.6825 116.069 24.5032C115.541 25.3239 114.896 26.1446 114.193 26.7894C113.489 27.4928 112.61 28.0204 111.672 28.4308C110.734 28.8411 109.621 29.0756 108.448 29.0756C107.276 29.0756 106.396 28.7825 105.693 28.1963C105.048 27.6101 104.521 26.848 104.169 25.9101C103.817 24.9721 103.583 23.8584 103.524 22.6859C103.407 21.5135 103.407 20.2239 103.407 18.9928C103.407 17.7032 103.465 16.4721 103.524 15.2411C103.583 14.0101 103.641 12.9549 103.583 11.9584C103.524 10.9618 103.465 10.1997 103.289 9.61353C103.114 9.02732 102.821 8.6756 102.352 8.6756C102.879 8.20663 103.465 7.73766 104.11 7.32732C104.755 6.91697 105.458 6.62387 106.162 6.44801C106.865 6.27215 107.569 6.21353 108.272 6.38939C108.976 6.50663 109.621 6.91697 110.265 7.50318C110.676 7.91353 110.91 8.61697 110.969 9.73077C111.027 10.8446 111.027 12.0756 110.969 13.5411C110.91 15.0066 110.793 16.4135 110.617 17.9377C110.441 19.4618 110.383 20.8101 110.383 22.0411C110.383 23.2721 110.441 24.2687 110.676 24.9721C110.852 25.6756 111.262 25.9687 111.848 25.7928C112.61 25.5584 113.314 25.0308 114.017 24.0928C114.721 23.2135 115.365 22.1584 115.952 20.9859C116.538 19.8135 117.065 18.5825 117.417 17.3515C117.827 16.1204 118.121 15.0066 118.238 14.1273C118.179 13.5411 118.179 13.0721 118.179 12.6032C118.414 12.1928 118.531 11.7825 118.648 11.3721Z" fill="#fff"/>
<path d="M44.5515 47.7178H42.9688V49.1247H44.5515V47.7178Z" fill="#fff"/>
<path d="M47.5408 47.7178H45.958V49.1247H47.5408V47.7178Z" fill="#fff"/>
<path d="M45.0201 45.8998C41.9718 45.8998 39.627 43.6136 39.627 40.7412V39.0412H41.4442V40.5067C41.4442 42.7929 42.8511 44.1998 45.0787 44.1998C47.2476 44.1998 48.5373 42.7929 48.5373 41.5033C48.5373 40.5067 47.7166 39.9205 46.8959 39.9205C46.8373 39.9205 46.7787 39.9205 46.7201 39.9205V38.3964C46.8959 38.3964 47.1304 38.3964 47.4821 38.3964C49.0063 38.3964 50.1201 39.0998 50.8235 40.4481C51.2338 41.2102 51.8201 41.5033 52.8752 41.5033H56.5683C57.1545 41.5033 57.858 41.2102 57.858 39.8033V36.5205H59.6752V40.3895C59.6752 41.1515 59.4407 41.7964 59.0304 42.324C58.5614 42.9102 57.9166 43.2033 57.0373 43.2033H52.1718H52.0545C50.8821 43.2033 50.9407 42.9102 50.3545 42.324L50.1787 42.2067L50.1201 42.5584C49.6511 44.4929 47.5407 45.8998 45.0201 45.8998Z" fill="#fff"/>
<path d="M61.3174 45.1384C62.7243 45.0798 63.4864 44.3177 63.4864 42.9108V37.2832H65.3036V42.7349C65.3036 44.1418 64.9519 45.0798 64.2484 45.7246C63.6622 46.2522 62.6657 46.5453 61.2588 46.6039C61.3174 46.5453 61.3174 45.1384 61.3174 45.1384Z" fill="#fff"/>
<path d="M68.7614 46.545V45.1381H69.6408C70.989 45.1381 71.7511 44.6106 71.927 43.4968L71.9856 43.2623L71.7511 43.3209C71.5166 43.3795 71.1649 43.3795 70.5787 43.3795C68.6442 43.3795 67.2373 41.9726 67.2373 39.9795C67.2373 37.9864 68.5856 36.6381 70.5787 36.6381C72.4545 36.6381 73.8614 38.045 73.8614 40.0381V41.6795H87.1097V40.683C87.1097 39.9209 86.9339 39.1002 85.7614 39.1002H77.4959L77.4373 37.1071L81.0132 33.5312H82.9477L78.9028 37.5761H85.8787C87.8718 37.5761 88.8097 38.6313 88.8097 40.683V43.4381H73.8028L73.7442 43.614C73.627 44.6106 73.3339 45.314 72.7477 45.783C72.1028 46.3692 71.0476 46.6623 69.5821 46.6623L68.7614 46.545ZM70.4614 38.1623C69.5821 38.1623 68.9959 38.8071 68.9959 39.8037C68.9959 40.8002 69.6408 41.5623 70.5201 41.5623H71.9856V39.8623C71.9856 38.8657 71.3994 38.1623 70.4614 38.1623Z" fill="#fff"/>
<path d="M55.2205 50.5312V52.8761C55.2205 53.4623 55.0446 53.9313 54.6929 54.283C54.3412 54.6347 53.8722 54.8106 53.2274 54.8106C52.5826 54.8106 52.1136 54.6347 51.8205 54.2244C51.5274 53.8726 51.4102 53.4037 51.4102 52.7002V51.4692H52.055V52.6416C52.055 53.6968 52.524 54.3416 53.3446 54.3416C53.6964 54.3416 53.9895 54.2244 54.224 53.9313C54.4584 53.6381 54.6343 53.2278 54.6343 52.7002C54.6343 51.9381 54.6343 51.5864 54.6343 51.5864L54.5171 50.7071L55.2205 50.5312ZM53.6964 51.5278C53.6964 51.7623 53.5205 51.9381 53.286 51.9381C53.0515 51.9381 52.8757 51.7623 52.8757 51.5278C52.8757 51.2933 53.0515 51.1175 53.286 51.1175C53.5205 51.1175 53.6964 51.2933 53.6964 51.5278Z" fill="#fff"/>
<path d="M56.9792 53.0519C56.9792 53.9313 56.5103 54.5175 55.5723 54.8106L55.4551 54.5175C56.0413 54.3416 56.393 53.8726 56.393 53.2278V51.5864L56.2758 50.7071L57.0378 50.5312C56.9792 50.5312 56.9792 53.0519 56.9792 53.0519Z" fill="#fff"/>
<path d="M60.9068 53.3451H60.1447C60.0275 54.1072 59.5585 54.5762 58.7378 54.8106L58.6206 54.5175C59.2068 54.2831 59.4999 53.8727 59.4999 53.2865H58.8551C58.5033 53.2865 58.2102 53.1693 57.9757 52.9348C57.7413 52.7003 57.624 52.4072 57.624 51.9968C57.624 51.5279 57.7413 51.1175 58.0344 50.8244C58.3275 50.5313 58.6792 50.3555 59.1482 50.3555H60.1447V52.7589H60.9068V53.3451ZM59.4999 52.7589V50.8831H59.1482C58.6206 50.8831 58.3275 51.2934 58.3275 51.9968C58.3275 52.5244 58.5033 52.7589 58.9723 52.7589C58.9137 52.7589 59.4999 52.7589 59.4999 52.7589Z" fill="#fff"/>
<path d="M65.1856 53.3447H60.7305V52.7585H64.4822V51.762C64.4822 51.2344 64.1305 50.9999 63.3684 50.9999H61.0236C61.8443 50.2378 62.4305 49.593 62.8408 49.0654H63.7787L62.8408 49.8275L62.2546 50.4137H63.4856C64.5408 50.4137 65.127 50.8827 65.127 51.6447L65.1856 53.3447Z" fill="#fff"/>
<path d="M72.0444 52.4071C72.0444 52.9933 71.6927 53.4036 71.0478 53.4036H68.0582C67.7065 53.4036 67.3547 53.2864 67.1789 52.9933C66.9444 52.7588 66.8271 52.4071 66.8271 51.9381C66.8271 51.5864 66.9444 51.2933 67.0616 51.0002H67.6478C67.472 51.2933 67.3547 51.5864 67.3547 51.8209C67.3547 52.4657 67.5892 52.8174 68.1168 52.8174H70.8134C71.1651 52.8174 71.2823 52.6416 71.2823 52.2898V51.5864L71.1651 50.7657L71.9271 50.5898V52.4071H72.0444ZM69.9927 54.4002C69.9927 54.5761 69.8168 54.8105 69.5823 54.8105C69.3478 54.8105 69.172 54.6347 69.172 54.4002C69.172 54.1657 69.3478 53.9898 69.5823 53.9898C69.8168 53.9898 69.9927 54.1657 69.9927 54.4002Z" fill="#fff"/>
<path d="M75.9722 53.3451H75.2101C75.0929 54.1072 74.6239 54.5761 73.8032 54.8106L73.686 54.5761C74.2722 54.3416 74.5653 53.9313 74.5653 53.3451H73.9205C73.5688 53.3451 73.2757 53.2279 73.0412 52.9934C72.8067 52.7589 72.6895 52.4658 72.6895 52.0554C72.6895 51.5865 72.8067 51.1761 73.0998 50.883C73.3929 50.5899 73.7446 50.4141 74.2136 50.4141H75.2101V52.7589H75.9722V53.3451ZM74.5067 52.7589V50.883H74.155C73.6274 50.883 73.3343 51.2934 73.3343 51.9968C73.3343 52.5244 73.5101 52.7589 73.9791 52.7589H74.5067Z" fill="#fff"/>
<path d="M77.7304 52.4071C77.7304 52.9933 77.3787 53.345 76.7339 53.345H75.7373V52.7588H76.558C76.9097 52.7588 77.027 52.5829 77.027 52.2312V51.5864L76.9097 50.7657L77.6718 50.5898V52.4071H77.7304ZM77.3787 54.4002C77.3787 54.5761 77.2028 54.8105 76.9683 54.8105C76.7339 54.8105 76.558 54.6347 76.558 54.4002C76.558 54.1657 76.7339 53.9898 76.9683 53.9898C77.2028 53.9898 77.3787 54.1657 77.3787 54.4002Z" fill="#fff"/>
<path fill-rule="evenodd" clip-rule="evenodd" d="M135.707 7.15193C135.531 7.50365 135.238 7.79675 134.886 7.97262C134.535 8.14848 134.183 8.26572 133.773 8.26572C133.362 8.26572 133.01 8.14848 132.659 7.97262C132.307 7.79675 132.014 7.50365 131.838 7.15193C131.662 6.8002 131.545 6.44848 131.545 6.03813C131.545 5.62779 131.662 5.27606 131.838 4.92434C132.014 4.57262 132.307 4.27951 132.659 4.10365C133.01 3.92779 133.362 3.81055 133.773 3.81055C134.183 3.81055 134.535 3.92779 134.886 4.10365C135.238 4.27951 135.531 4.57262 135.707 4.92434C135.883 5.27606 136 5.62779 136 6.03813C136 6.44848 135.941 6.8002 135.707 7.15193ZM135.414 5.15882C135.238 4.86572 135.004 4.63124 134.71 4.45537C134.417 4.27951 134.124 4.22089 133.773 4.22089C133.421 4.22089 133.128 4.27951 132.835 4.45537C132.541 4.63124 132.307 4.86572 132.131 5.15882C131.955 5.45193 131.897 5.74503 131.897 6.09675C131.897 6.44848 131.955 6.74158 132.131 7.03468C132.307 7.32779 132.541 7.56227 132.835 7.73813C133.128 7.914 133.421 7.97262 133.773 7.97262C134.124 7.97262 134.417 7.914 134.71 7.73813C135.004 7.56227 135.238 7.32779 135.414 7.03468C135.59 6.74158 135.648 6.44848 135.648 6.09675C135.648 5.74503 135.531 5.45193 135.414 5.15882ZM134.476 6.62434C134.535 6.97606 134.593 7.21055 134.652 7.32779H134.3C134.241 7.26917 134.183 7.03468 134.124 6.74158C134.066 6.38986 133.89 6.27262 133.597 6.27262H133.304V7.32779H133.069V4.86572C133.245 4.8071 133.479 4.8071 133.714 4.8071C134.066 4.8071 134.3 4.86572 134.417 5.04158C134.535 5.15882 134.593 5.33468 134.593 5.51055C134.593 5.86227 134.359 6.03813 134.124 6.15537C134.3 6.214 134.417 6.38986 134.476 6.62434ZM134.3 5.51055C134.3 5.15882 134.066 5.04158 133.714 5.04158C133.538 5.04158 133.479 5.04158 133.421 5.1002V5.97951H133.773C134.066 5.97951 134.3 5.80365 134.3 5.51055Z" fill="#fff"/>
<path d="M56.6863 34.0586H55.1035V35.4655H56.6863V34.0586Z" fill="#fff"/>
</g>
<defs>
<clipPath id="clip0_858_2577">
<rect width="136" height="54.8103" fill="white"/>
</clipPath>
</defs>
</svg>
