<svg width="24" height="24" viewBox="0 0 24 24" fill="none" xmlns="http://www.w3.org/2000/svg">
<path d="M6.16647 3.8344C6.16616 4.45321 5.92004 5.04656 5.48225 5.4839C5.04447 5.92125 4.45088 6.16678 3.83207 6.16647C3.21326 6.16616 2.61991 5.92004 2.18256 5.48225C1.74522 5.04447 1.49969 4.45088 1.5 3.83207C1.50031 3.21326 1.74643 2.61991 2.18421 2.18256C2.622 1.74522 3.21559 1.49969 3.8344 1.5C4.45321 1.50031 5.04656 1.74643 5.4839 2.18421C5.92125 2.622 6.16678 3.21559 6.16647 3.8344ZM6.23646 7.89423H1.57V22.5003H6.23646V7.89423ZM13.6095 7.89423H8.96635V22.5003H13.5628V14.8356C13.5628 10.5658 19.1276 10.1691 19.1276 14.8356V22.5003H23.7357V13.249C23.7357 6.05097 15.4994 6.31929 13.5628 9.85414L13.6095 7.89423Z" fill="white"/>
</svg>
